<svg xmlns="http://www.w3.org/2000/svg" viewBox="0 0 600 100" width="6000" height="1000">
  <!-- Dice Face 1 -->
  <rect x="0" y="0" width="100" height="100" fill="white" stroke="black" rx="15" />
  <circle cx="50" cy="50" r="10" fill="black" />

  <!-- Dice Face 2 -->
  <rect x="100" y="0" width="100" height="100" fill="white" stroke="black" rx="15" />
  <circle cx="130" cy="30" r="10" fill="black" />
  <circle cx="170" cy="70" r="10" fill="black" />

  <!-- Dice Face 3 -->
  <rect x="200" y="0" width="100" height="100" fill="white" stroke="black" rx="15" />
  <circle cx="230" cy="30" r="10" fill="black" />
  <circle cx="250" cy="50" r="10" fill="black" />
  <circle cx="270" cy="70" r="10" fill="black" />

  <!-- Dice Face 4 -->
  <rect x="300" y="0" width="100" height="100" fill="white" stroke="black" rx="15" />
  <circle cx="320" cy="30" r="10" fill="black" />
  <circle cx="380" cy="30" r="10" fill="black" />
  <circle cx="320" cy="70" r="10" fill="black" />
  <circle cx="380" cy="70" r="10" fill="black" />

  <!-- Dice Face 5 -->
  <rect x="400" y="0" width="100" height="100" fill="white" stroke="black" rx="15" />
  <circle cx="420" cy="30" r="10" fill="black" />
  <circle cx="480" cy="30" r="10" fill="black" />
  <circle cx="450" cy="50" r="10" fill="black" />
  <circle cx="420" cy="70" r="10" fill="black" />
  <circle cx="480" cy="70" r="10" fill="black" />

  <!-- Dice Face 6 -->
  <rect x="500" y="0" width="100" height="100" fill="white" stroke="black" rx="15" />
  <circle cx="520" cy="30" r="10" fill="black" />
  <circle cx="520" cy="50" r="10" fill="black" />
  <circle cx="520" cy="70" r="10" fill="black" />
  <circle cx="580" cy="30" r="10" fill="black" />
  <circle cx="580" cy="50" r="10" fill="black" />
  <circle cx="580" cy="70" r="10" fill="black" />
</svg>